<svg xmlns="http://www.w3.org/2000/svg" xmlns:xlink="http://www.w3.org/1999/xlink" width="2560" zoomAndPan="magnify" viewBox="0 0 1920 1079.999946" height="1440" preserveAspectRatio="xMidYMid meet" version="1.0"><defs><clipPath id="abbe529045"><path d="M 129.941406 133 L 1789.691406 133 L 1789.691406 929 L 129.941406 929 Z M 129.941406 133 " clip-rule="nonzero"/></clipPath></defs><rect x="-192" width="2304" fill="#ffffff" y="-107.999995" height="1295.999935" fill-opacity="1"/><rect x="-192" width="2304" fill="#f3ece0" y="-107.999995" height="1295.999935" fill-opacity="1"/><g clip-path="url(#abbe529045)"><path fill="#fd7041" d="M 1757.160156 161.1875 C 1756.195312 143.09375 1739.203125 130.203125 1721.519531 134.144531 L 1612.410156 158.457031 C 1599.574219 161.316406 1590.21875 172.375 1589.519531 185.503906 L 1575.414062 450.679688 C 1574.585938 466.238281 1561.730469 478.429688 1546.148438 478.429688 L 1414.296875 478.429688 C 1368.640625 391.878906 1280.203125 333.777344 1152.839844 333.777344 C 1023.609375 333.777344 935.769531 391.878906 890.734375 478.429688 L 779.980469 478.429688 C 763.796875 478.429688 750.675781 465.308594 750.675781 449.121094 L 750.675781 253.332031 C 750.675781 237.148438 737.554688 224.027344 721.371094 224.027344 L 568.308594 224.027344 C 552.996094 224.027344 540.261719 235.816406 539.085938 251.085938 L 530.359375 364.566406 C 489.449219 323.964844 433.140625 298.847656 370.945312 298.847656 C 189.488281 298.847656 129.941406 400.1875 129.941406 525.195312 C 129.941406 650.199219 182.007812 766.191406 370.9375 766.191406 C 420.351562 766.191406 465.929688 747.878906 503.148438 718.238281 L 498.699219 776.097656 C 497.390625 793.121094 510.847656 807.65625 527.917969 807.65625 L 891.109375 807.65625 C 930.582031 881 1008.613281 928.597656 1152.835938 928.597656 C 1286.160156 928.597656 1366.324219 881 1409.273438 807.65625 L 1760.746094 807.65625 C 1777.546875 807.65625 1790.90625 793.5625 1790.011719 776.785156 L 1757.15625 161.1875 Z M 1757.160156 161.1875 " fill-opacity="1" fill-rule="nonzero"/></g><path fill="#fd7041" d="M 1047.679688 228.636719 C 1054.105469 230.851562 1060.910156 231.925781 1067.820312 231.925781 C 1087.046875 231.925781 1107.0625 223.613281 1121.800781 208.601562 C 1133.671875 196.496094 1142.34375 180.828125 1146.972656 163.984375 C 1156.496094 185.035156 1172.523438 206.210938 1199.433594 215 C 1220.589844 221.894531 1245.519531 219.964844 1264.480469 209.949219 C 1279.234375 202.136719 1289.3125 190.085938 1293.652344 175.105469 C 1307.050781 128.757812 1251.402344 77.3125 1218.625 60.066406 C 1215.046875 58.191406 1210.613281 59.539062 1208.730469 63.144531 C 1206.839844 66.722656 1208.222656 71.144531 1211.800781 73.03125 C 1241.742188 88.785156 1289.988281 135.007812 1279.570312 171.035156 C 1275.527344 185.03125 1265.40625 192.871094 1257.625 196.996094 C 1242.3125 205.109375 1221.265625 206.710938 1203.988281 201.058594 C 1167.917969 189.28125 1154.84375 148.929688 1150.253906 125.917969 C 1149.496094 122.082031 1145.941406 119.578125 1142.003906 120.09375 C 1138.148438 120.667969 1135.410156 124.160156 1135.78125 128.035156 C 1138.164062 153.191406 1128.566406 180.78125 1111.347656 198.324219 C 1095.207031 214.769531 1071.546875 221.363281 1052.480469 214.78125 C 1026.484375 205.78125 1019 180.039062 1030.242188 138.285156 C 1031.292969 134.378906 1028.976562 130.355469 1025.070312 129.3125 C 1021.191406 128.296875 1017.148438 130.570312 1016.089844 134.476562 C 1002.878906 183.558594 1014.097656 217 1047.6875 228.636719 Z M 1047.679688 228.636719 " fill-opacity="1" fill-rule="nonzero"/><path fill="#fd7041" d="M 280.164062 247.410156 C 283.503906 250.269531 288.445312 250.21875 291.726562 247.296875 L 359.839844 186.632812 C 363.226562 183.621094 368.347656 183.671875 371.667969 186.753906 L 415.949219 227.835938 C 419.320312 230.964844 424.535156 230.964844 427.90625 227.835938 L 501.839844 159.261719 C 505.277344 156.074219 505.609375 150.75 502.59375 147.160156 L 435.085938 66.800781 C 431.953125 63.074219 426.386719 62.597656 422.671875 65.746094 L 350.917969 126.53125 C 347.371094 129.539062 342.097656 129.261719 338.882812 125.902344 L 305.734375 91.273438 C 302.398438 87.789062 296.878906 87.644531 293.359375 90.949219 L 207.085938 172.0625 C 203.273438 175.648438 203.414062 181.75 207.390625 185.148438 L 280.160156 247.40625 Z M 280.164062 247.410156 " fill-opacity="1" fill-rule="nonzero"/><path fill="#fd7041" d="M 516.484375 896.546875 C 516.484375 880.414062 525.859375 869.90625 540.066406 869.90625 C 549.734375 869.90625 558.167969 875.378906 560.140625 882.484375 C 560.335938 883.125 560.4375 883.765625 560.4375 884.3125 C 560.4375 886.578125 559.007812 888.058594 556.785156 888.058594 C 554.910156 888.058594 553.875 887.269531 552.691406 885.050781 C 549.980469 879.972656 546.082031 877.457031 540.160156 877.457031 C 531.234375 877.457031 525.214844 884.953125 525.214844 896.449219 C 525.214844 908.238281 531.332031 915.441406 540.160156 915.441406 C 546.328125 915.441406 550.078125 912.78125 552.742188 907.847656 C 553.972656 905.527344 554.914062 904.839844 556.785156 904.839844 C 559.007812 904.839844 560.484375 906.367188 560.484375 908.585938 C 560.484375 909.226562 560.335938 909.96875 560.089844 910.757812 C 557.621094 917.863281 549.480469 922.992188 540.160156 922.992188 C 525.953125 922.992188 516.480469 912.78125 516.480469 896.550781 Z M 516.484375 896.546875 " fill-opacity="1" fill-rule="nonzero"/><path fill="#fd7041" d="M 569.617188 918.398438 L 569.617188 874.246094 C 569.617188 871.679688 571.292969 869.902344 573.660156 869.902344 C 576.027344 869.902344 577.703125 871.679688 577.703125 874.246094 L 577.703125 879.179688 L 577.902344 879.179688 C 579.382812 873.851562 584.410156 869.90625 589.542969 869.90625 C 591.417969 869.90625 592.75 870.351562 593.589844 871.136719 C 594.328125 871.828125 594.671875 872.8125 594.671875 874 C 594.671875 875.332031 594.230469 876.316406 593.34375 877.007812 C 592.457031 877.746094 591.121094 878.09375 589.25 878.09375 C 581.503906 878.09375 578.199219 883.667969 578.199219 890.226562 L 578.199219 918.394531 C 578.199219 921.109375 576.421875 922.984375 573.90625 922.984375 C 571.390625 922.984375 569.613281 921.109375 569.613281 918.394531 Z M 569.617188 918.398438 " fill-opacity="1" fill-rule="nonzero"/><path fill="#fd7041" d="M 595.761719 896.640625 C 595.761719 880.460938 604.890625 869.90625 619.046875 869.90625 C 632.167969 869.90625 641.394531 879.722656 641.394531 893.785156 C 641.394531 896.890625 639.617188 898.765625 636.65625 898.765625 L 604.59375 898.765625 C 604.59375 909.125 610.265625 915.539062 619.441406 915.539062 C 625.554688 915.539062 629.308594 913.367188 633.300781 907.546875 C 634.1875 906.316406 635.175781 905.820312 636.507812 905.820312 C 638.777344 905.820312 640.308594 907.300781 640.308594 909.570312 C 640.308594 910.261719 640.0625 911.148438 639.667969 912.085938 C 636.359375 919.042969 629.160156 922.988281 619.785156 922.988281 C 604.640625 922.988281 595.761719 913.222656 595.761719 896.644531 Z M 632.515625 892.054688 C 632.320312 883.171875 626.839844 877.351562 618.898438 877.351562 C 610.90625 877.351562 605.183594 883.222656 604.644531 892.054688 Z M 632.515625 892.054688 " fill-opacity="1" fill-rule="nonzero"/><path fill="#fd7041" d="M 647.90625 907.59375 C 647.90625 898.8125 654.664062 893.289062 666.503906 892.597656 L 681.257812 891.757812 L 681.257812 887.464844 C 681.257812 881.199219 677.113281 877.453125 670.007812 877.453125 C 664.433594 877.453125 660.636719 879.472656 657.773438 884.558594 C 656.984375 885.988281 655.851562 886.628906 654.222656 886.628906 C 652 886.628906 650.421875 885.097656 650.421875 882.78125 C 650.421875 881.695312 650.769531 880.464844 651.457031 879.230469 C 654.371094 873.605469 661.867188 869.90625 670.203125 869.90625 C 682.242188 869.90625 689.839844 876.417969 689.839844 886.628906 L 689.839844 918.644531 C 689.839844 921.210938 688.160156 922.988281 685.792969 922.988281 C 683.378906 922.988281 681.699219 921.210938 681.699219 918.644531 L 681.699219 913.265625 L 681.503906 913.265625 C 678.445312 919.136719 671.886719 922.984375 664.976562 922.984375 C 654.765625 922.984375 647.910156 916.816406 647.910156 907.59375 Z M 681.253906 902.613281 L 681.253906 898.417969 L 667.488281 899.257812 C 660.582031 899.703125 656.636719 902.761719 656.636719 907.59375 C 656.636719 912.476562 660.730469 915.683594 666.898438 915.683594 C 674.988281 915.683594 681.253906 910.011719 681.253906 902.613281 Z M 681.253906 902.613281 " fill-opacity="1" fill-rule="nonzero"/><path fill="#fd7041" d="M 703.5 877.847656 L 699.207031 877.847656 C 696.742188 877.847656 695.359375 876.566406 695.359375 874.296875 C 695.359375 872.074219 696.742188 870.792969 699.207031 870.792969 L 703.5 870.792969 L 703.5 862.011719 C 703.5 859.296875 705.277344 857.421875 707.792969 857.421875 C 710.308594 857.421875 712.085938 859.296875 712.085938 862.011719 L 712.085938 870.792969 L 718.695312 870.792969 C 721.164062 870.792969 722.542969 872.074219 722.542969 874.296875 C 722.542969 876.5625 721.164062 877.847656 718.695312 877.847656 L 712.085938 877.847656 L 712.085938 908.386719 C 712.085938 912.726562 713.617188 914.800781 717.90625 915.09375 L 718.648438 915.144531 C 721.457031 915.339844 722.742188 916.476562 722.742188 918.496094 C 722.742188 921.113281 721.257812 922.496094 716.476562 922.496094 L 715.933594 922.496094 C 707.648438 922.496094 703.503906 918.449219 703.503906 910.261719 L 703.503906 877.851562 Z M 703.5 877.847656 " fill-opacity="1" fill-rule="nonzero"/><path fill="#fd7041" d="M 730.585938 856.832031 C 730.585938 853.871094 733.003906 851.503906 735.914062 851.503906 C 738.875 851.503906 741.292969 853.871094 741.292969 856.832031 C 741.292969 859.742188 738.875 862.160156 735.914062 862.160156 C 733.003906 862.160156 730.585938 859.742188 730.585938 856.832031 Z M 731.621094 918.398438 L 731.621094 874.492188 C 731.621094 871.78125 733.398438 869.90625 735.914062 869.90625 C 738.429688 869.90625 740.207031 871.78125 740.207031 874.492188 L 740.207031 918.398438 C 740.207031 921.109375 738.429688 922.988281 735.914062 922.988281 C 733.398438 922.988281 731.621094 921.109375 731.621094 918.398438 Z M 731.621094 918.398438 " fill-opacity="1" fill-rule="nonzero"/><path fill="#fd7041" d="M 764.96875 918.644531 L 748.640625 876.070312 C 748.34375 875.332031 748.195312 874.589844 748.195312 873.851562 C 748.195312 871.484375 749.921875 869.902344 752.488281 869.902344 C 754.410156 869.902344 755.695312 870.9375 756.484375 873.160156 L 770.546875 912.96875 L 770.742188 912.96875 L 784.851562 873.160156 C 785.640625 870.9375 786.921875 869.902344 788.796875 869.902344 C 791.363281 869.902344 793.042969 871.480469 793.042969 873.851562 C 793.042969 874.589844 792.890625 875.332031 792.597656 876.070312 L 776.320312 918.644531 C 775.183594 921.605469 773.355469 922.988281 770.59375 922.988281 C 767.78125 922.988281 766.207031 921.753906 764.972656 918.644531 Z M 764.96875 918.644531 " fill-opacity="1" fill-rule="nonzero"/><path fill="#fd7041" d="M 796.589844 896.640625 C 796.589844 880.460938 805.71875 869.90625 819.875 869.90625 C 832.996094 869.90625 842.222656 879.722656 842.222656 893.785156 C 842.222656 896.890625 840.445312 898.765625 837.488281 898.765625 L 805.421875 898.765625 C 805.421875 909.125 811.097656 915.539062 820.269531 915.539062 C 826.386719 915.539062 830.136719 913.367188 834.128906 907.546875 C 835.015625 906.316406 836.007812 905.820312 837.335938 905.820312 C 839.605469 905.820312 841.136719 907.300781 841.136719 909.570312 C 841.136719 910.261719 840.890625 911.148438 840.496094 912.085938 C 837.1875 919.042969 829.988281 922.988281 820.613281 922.988281 C 805.46875 922.988281 796.589844 913.222656 796.589844 896.644531 Z M 833.34375 892.054688 C 833.148438 883.171875 827.667969 877.351562 819.726562 877.351562 C 811.738281 877.351562 806.011719 883.222656 805.472656 892.054688 Z M 833.34375 892.054688 " fill-opacity="1" fill-rule="nonzero"/><path fill="#fd7041" d="M 520.382812 1011.589844 C 519.691406 1010.503906 519.398438 1009.515625 519.398438 1008.378906 C 519.398438 1006.210938 520.976562 1004.683594 523.246094 1004.683594 C 524.675781 1004.683594 525.511719 1005.175781 526.847656 1006.65625 C 531.238281 1011.488281 534.839844 1013.363281 540.066406 1013.460938 C 549.246094 1013.609375 554.820312 1008.332031 554.820312 1000.683594 L 554.820312 992.59375 L 554.621094 992.59375 C 551.464844 998.167969 545.351562 1001.820312 538.144531 1001.820312 C 525.070312 1001.820312 516.488281 991.511719 516.488281 975.574219 C 516.488281 959.492188 525.070312 949.230469 538.34375 949.230469 C 545.59375 949.230469 551.265625 952.785156 554.667969 958.554688 L 554.820312 958.554688 L 554.820312 953.671875 C 554.820312 951.007812 556.644531 949.230469 559.113281 949.230469 C 561.578125 949.230469 563.40625 951.007812 563.40625 953.671875 L 563.40625 1000.386719 C 563.40625 1012.621094 554.328125 1020.90625 539.726562 1020.761719 C 531.144531 1020.660156 523.988281 1017.257812 520.386719 1011.585938 Z M 554.816406 975.574219 C 554.816406 964.277344 548.796875 956.78125 539.871094 956.78125 C 531.039062 956.78125 525.269531 964.082031 525.269531 975.574219 C 525.269531 987.070312 531.039062 994.269531 539.871094 994.269531 C 548.796875 994.269531 554.816406 986.871094 554.816406 975.574219 Z M 554.816406 975.574219 " fill-opacity="1" fill-rule="nonzero"/><path fill="#fd7041" d="M 572.378906 986.921875 C 572.378906 978.140625 579.136719 972.617188 590.976562 971.925781 L 605.730469 971.085938 L 605.730469 966.792969 C 605.730469 960.527344 601.585938 956.78125 594.480469 956.78125 C 588.90625 956.78125 585.109375 958.804688 582.246094 963.886719 C 581.457031 965.316406 580.324219 965.957031 578.695312 965.957031 C 576.472656 965.957031 574.894531 964.425781 574.894531 962.109375 C 574.894531 961.023438 575.242188 959.792969 575.929688 958.558594 C 578.84375 952.933594 586.339844 949.234375 594.675781 949.234375 C 606.714844 949.234375 614.3125 955.746094 614.3125 965.957031 L 614.3125 997.972656 C 614.3125 1000.539062 612.632812 1002.316406 610.265625 1002.316406 C 607.851562 1002.316406 606.171875 1000.539062 606.171875 997.972656 L 606.171875 992.59375 L 605.976562 992.59375 C 602.917969 998.464844 596.359375 1002.3125 589.449219 1002.3125 C 579.238281 1002.3125 572.382812 996.148438 572.382812 986.921875 Z M 605.730469 981.941406 L 605.730469 977.746094 L 591.964844 978.585938 C 585.058594 979.03125 581.109375 982.089844 581.109375 986.921875 C 581.109375 991.808594 585.203125 995.015625 591.371094 995.015625 C 599.464844 995.015625 605.730469 989.339844 605.730469 981.941406 Z M 605.730469 981.941406 " fill-opacity="1" fill-rule="nonzero"/><path fill="#fd7041" d="M 627.976562 957.175781 L 623.683594 957.175781 C 621.214844 957.175781 619.835938 955.894531 619.835938 953.625 C 619.835938 951.402344 621.214844 950.121094 623.683594 950.121094 L 627.976562 950.121094 L 627.976562 941.339844 C 627.976562 938.625 629.753906 936.75 632.269531 936.75 C 634.785156 936.75 636.5625 938.625 636.5625 941.339844 L 636.5625 950.121094 L 643.171875 950.121094 C 645.636719 950.121094 647.019531 951.402344 647.019531 953.625 C 647.019531 955.890625 645.636719 957.175781 643.171875 957.175781 L 636.5625 957.175781 L 636.5625 987.714844 C 636.5625 992.054688 638.09375 994.128906 642.382812 994.421875 L 643.121094 994.472656 C 645.933594 994.667969 647.214844 995.804688 647.214844 997.824219 C 647.214844 1000.441406 645.734375 1001.824219 640.949219 1001.824219 L 640.410156 1001.824219 C 632.121094 1001.824219 627.980469 997.78125 627.980469 989.589844 L 627.980469 957.179688 Z M 627.976562 957.175781 " fill-opacity="1" fill-rule="nonzero"/><path fill="#fd7041" d="M 656.09375 997.726562 L 656.09375 933.84375 C 656.09375 931.179688 657.820312 929.355469 660.386719 929.355469 C 663.003906 929.355469 664.679688 931.179688 664.679688 933.84375 L 664.679688 958.3125 L 664.875 958.3125 C 667.738281 952.585938 673.359375 949.234375 681.152344 949.234375 C 692.402344 949.234375 699.207031 956.832031 699.207031 968.273438 L 699.207031 997.726562 C 699.207031 1000.4375 697.433594 1002.316406 694.914062 1002.316406 C 692.398438 1002.316406 690.621094 1000.4375 690.621094 997.726562 L 690.621094 969.855469 C 690.621094 961.714844 686.527344 956.832031 678.488281 956.832031 C 669.953125 956.832031 664.675781 962.652344 664.675781 971.53125 L 664.675781 997.726562 C 664.675781 1000.4375 662.898438 1002.316406 660.382812 1002.316406 C 657.867188 1002.316406 656.089844 1000.4375 656.089844 997.726562 Z M 656.09375 997.726562 " fill-opacity="1" fill-rule="nonzero"/><path fill="#fd7041" d="M 707.597656 975.96875 C 707.597656 959.789062 716.722656 949.234375 730.882812 949.234375 C 744 949.234375 753.226562 959.050781 753.226562 973.113281 C 753.226562 976.21875 751.453125 978.09375 748.492188 978.09375 L 716.429688 978.09375 C 716.429688 988.453125 722.101562 994.867188 731.277344 994.867188 C 737.390625 994.867188 741.144531 992.695312 745.136719 986.875 C 746.023438 985.644531 747.011719 985.148438 748.34375 985.148438 C 750.613281 985.148438 752.140625 986.628906 752.140625 988.898438 C 752.140625 989.589844 751.898438 990.476562 751.5 991.414062 C 748.195312 998.371094 740.992188 1002.316406 731.621094 1002.316406 C 716.476562 1002.316406 707.597656 992.550781 707.597656 975.972656 Z M 744.347656 971.382812 C 744.152344 962.5 738.671875 956.679688 730.730469 956.679688 C 722.742188 956.679688 717.015625 962.550781 716.476562 971.382812 Z M 744.347656 971.382812 " fill-opacity="1" fill-rule="nonzero"/><path fill="#fd7041" d="M 761.859375 997.726562 L 761.859375 953.574219 C 761.859375 951.007812 763.535156 949.230469 765.902344 949.230469 C 768.273438 949.230469 769.949219 951.007812 769.949219 953.574219 L 769.949219 958.507812 L 770.144531 958.507812 C 771.625 953.179688 776.65625 949.234375 781.789062 949.234375 C 783.664062 949.234375 784.996094 949.679688 785.832031 950.464844 C 786.570312 951.15625 786.917969 952.144531 786.917969 953.328125 C 786.917969 954.660156 786.472656 955.644531 785.585938 956.335938 C 784.699219 957.078125 783.363281 957.421875 781.492188 957.421875 C 773.746094 957.421875 770.441406 962.996094 770.441406 969.554688 L 770.441406 997.722656 C 770.441406 1000.4375 768.667969 1002.3125 766.148438 1002.3125 C 763.632812 1002.3125 761.855469 1000.4375 761.855469 997.722656 Z M 761.859375 997.726562 " fill-opacity="1" fill-rule="nonzero"/><path fill="#fd7041" d="M 792.398438 936.160156 C 792.398438 933.199219 794.816406 930.832031 797.726562 930.832031 C 800.6875 930.832031 803.105469 933.199219 803.105469 936.160156 C 803.105469 939.070312 800.6875 941.488281 797.726562 941.488281 C 794.816406 941.488281 792.398438 939.070312 792.398438 936.160156 Z M 793.433594 997.726562 L 793.433594 953.824219 C 793.433594 951.109375 795.210938 949.234375 797.726562 949.234375 C 800.242188 949.234375 802.019531 951.109375 802.019531 953.824219 L 802.019531 997.726562 C 802.019531 1000.4375 800.242188 1002.316406 797.726562 1002.316406 C 795.210938 1002.316406 793.433594 1000.4375 793.433594 997.726562 Z M 793.433594 997.726562 " fill-opacity="1" fill-rule="nonzero"/><path fill="#fd7041" d="M 813.609375 997.726562 L 813.609375 953.574219 C 813.609375 951.007812 815.285156 949.230469 817.652344 949.230469 C 820.019531 949.230469 821.699219 951.007812 821.699219 953.574219 L 821.699219 958.308594 L 821.894531 958.308594 C 824.753906 952.785156 830.230469 949.230469 838.171875 949.230469 C 849.421875 949.230469 855.929688 956.480469 855.929688 968.125 L 855.929688 997.722656 C 855.929688 1000.4375 854.15625 1002.3125 851.636719 1002.3125 C 849.121094 1002.3125 847.34375 1000.4375 847.34375 997.722656 L 847.34375 969.652344 C 847.34375 961.367188 843.449219 956.828125 835.554688 956.828125 C 827.464844 956.828125 822.1875 962.550781 822.1875 971.234375 L 822.1875 997.722656 C 822.1875 1000.4375 820.410156 1002.3125 817.894531 1002.3125 C 815.378906 1002.3125 813.601562 1000.4375 813.601562 997.722656 Z M 813.609375 997.726562 " fill-opacity="1" fill-rule="nonzero"/><path fill="#fd7041" d="M 868.21875 1011.589844 C 867.53125 1010.503906 867.234375 1009.515625 867.234375 1008.378906 C 867.234375 1006.210938 868.8125 1004.683594 871.082031 1004.683594 C 872.511719 1004.683594 873.351562 1005.175781 874.683594 1006.65625 C 879.074219 1011.488281 882.675781 1013.363281 887.90625 1013.460938 C 897.082031 1013.609375 902.65625 1008.332031 902.65625 1000.683594 L 902.65625 992.59375 L 902.460938 992.59375 C 899.300781 998.167969 893.1875 1001.820312 885.984375 1001.820312 C 872.910156 1001.820312 864.324219 991.511719 864.324219 975.574219 C 864.324219 959.492188 872.910156 949.230469 886.179688 949.230469 C 893.429688 949.230469 899.101562 952.785156 902.507812 958.554688 L 902.65625 958.554688 L 902.65625 953.671875 C 902.65625 951.007812 904.480469 949.230469 906.949219 949.230469 C 909.414062 949.230469 911.242188 951.007812 911.242188 953.671875 L 911.242188 1000.386719 C 911.242188 1012.621094 902.164062 1020.90625 887.5625 1020.761719 C 878.980469 1020.660156 871.824219 1017.257812 868.222656 1011.585938 Z M 902.652344 975.574219 C 902.652344 964.277344 896.632812 956.78125 887.707031 956.78125 C 878.875 956.78125 873.105469 964.082031 873.105469 975.574219 C 873.105469 987.070312 878.875 994.269531 887.707031 994.269531 C 896.632812 994.269531 902.652344 986.871094 902.652344 975.574219 Z M 902.652344 975.574219 " fill-opacity="1" fill-rule="nonzero"/></svg>